<svg xmlns="http://www.w3.org/2000/svg" xmlns:xlink="http://www.w3.org/1999/xlink" width="1920" zoomAndPan="magnify" viewBox="0 0 1440 809.999993" height="1080" preserveAspectRatio="xMidYMid meet" version="1.2"><g id="79b9f91e80"><path style="fill:none;stroke-width:5;stroke-linecap:butt;stroke-linejoin:miter;stroke:#ffb65f;stroke-opacity:1;stroke-miterlimit:4;" d="M 18.750004 2.498678 L 1901.25112 2.50128 " transform="matrix(0.75,-0.000781248,0.000781248,0.75,-0.00194688,80.625016)"/><path style="fill:none;stroke-width:5;stroke-linecap:round;stroke-linejoin:round;stroke:#ffb65f;stroke-opacity:1;stroke-miterlimit:4;" d="M 2.49999 2.502584 C 2.499101 -1.643252 5.856765 -4.999132 10.002602 -5.000022 C 14.14323 -5.000917 17.49911 -1.643252 17.499999 2.502584 C 17.500895 6.643213 14.14323 9.999092 10.002602 9.999987 C 5.856765 10.000877 2.500886 6.643213 2.49999 2.502584 " transform="matrix(0.75,-0.000781248,0.000781248,0.75,-0.00194688,80.625016)"/><path style="fill:none;stroke-width:5;stroke-linecap:round;stroke-linejoin:round;stroke:#ffb65f;stroke-opacity:1;stroke-miterlimit:4;" d="M 1917.501129 2.502582 C 1917.502024 6.64321 1914.144359 9.999089 1909.998523 9.999979 C 1905.857894 10.000874 1902.502015 6.64321 1902.50112 2.502582 C 1902.50023 -1.643255 1905.857894 -4.999135 1909.998523 -5.00003 C 1914.144359 -5.00092 1917.500239 -1.643255 1917.501129 2.502582 " transform="matrix(0.75,-0.000781248,0.000781248,0.75,-0.00194688,80.625016)"/></g></svg>